<?xml version="1.0" standalone="no"?>
<!DOCTYPE svg PUBLIC "-//W3C//DTD SVG 20010904//EN"
 "http://www.w3.org/TR/2001/REC-SVG-20010904/DTD/svg10.dtd">
<svg version="1.0" xmlns="http://www.w3.org/2000/svg"
 width="195.000000pt" height="35.000000pt" viewBox="0 0 195.000000 35.000000"
 preserveAspectRatio="xMidYMid meet">

<g transform="translate(0.000000,35.000000) scale(0.100000,-0.100000)"
fill="#000000" stroke="none">
<path d="M56 309 l-48 -30 22 -24 c36 -38 54 -39 109 -5 l51 32 51 -32 c55
-34 73 -33 109 5 l22 24 -48 30 c-26 17 -52 31 -57 31 -5 0 -22 -11 -39 -25
-16 -14 -33 -25 -38 -25 -5 0 -22 11 -38 25 -17 14 -34 25 -39 25 -5 0 -31
-14 -57 -31z"/>
<path d="M555 235 c-49 -48 -18 -145 45 -145 38 0 60 9 60 26 0 10 -8 12 -30
8 -39 -8 -60 10 -60 51 0 41 21 59 60 51 22 -4 30 -2 30 8 0 34 -72 35 -105 1z"/>
<path d="M1450 175 l0 -85 44 0 c27 0 51 6 60 16 18 17 21 50 6 59 -5 3 -7 19
-3 35 8 42 -11 60 -63 60 l-44 0 0 -85z m75 35 c0 -8 -10 -16 -22 -18 -18 -3
-23 2 -23 18 0 16 5 21 23 18 12 -2 22 -10 22 -18z m10 -70 c0 -9 -11 -16 -27
-18 -23 -3 -28 1 -28 18 0 17 5 21 28 18 16 -2 27 -9 27 -18z"/>
<path d="M687 213 c-18 -18 -6 -32 23 -26 18 3 30 1 30 -5 0 -6 -12 -12 -26
-14 -35 -4 -53 -31 -38 -55 8 -13 26 -19 59 -20 l47 -2 -4 56 c-3 32 -11 59
-19 64 -16 10 -63 12 -72 2z m53 -73 c0 -13 -28 -25 -38 -16 -3 4 0 11 8 16
20 13 30 12 30 0z"/>
<path d="M813 155 c18 -54 25 -65 43 -65 18 0 26 10 40 53 9 28 19 58 22 65 2
7 -4 12 -16 12 -15 0 -23 -11 -32 -47 l-13 -48 -15 48 c-11 32 -21 47 -33 47
-16 0 -16 -5 4 -65z"/>
<path d="M946 198 c-20 -29 -20 -58 0 -86 12 -18 24 -22 52 -20 25 2 38 8 40
20 3 14 -3 16 -32 11 -24 -4 -36 -2 -36 6 0 6 17 11 40 11 35 0 40 3 40 23 0
53 -75 77 -104 35z m65 -23 c0 -5 -9 -11 -21 -13 -20 -3 -27 8 -13 22 10 9 34
3 34 -9z"/>
<path d="M1080 154 c0 -50 3 -64 15 -64 10 0 15 10 15 34 0 44 9 66 26 66 8 0
14 6 14 14 0 9 -12 14 -35 14 l-35 0 0 -64z"/>
<path d="M1180 153 c0 -48 3 -63 14 -63 11 0 16 14 18 47 2 36 7 49 21 51 14
3 17 -4 17 -47 0 -44 3 -51 20 -51 17 0 20 7 20 46 0 69 -12 84 -65 82 l-45
-2 0 -63z"/>
<path d="M1327 213 c-18 -18 -6 -32 23 -26 18 3 30 1 30 -5 0 -6 -12 -12 -26
-14 -35 -4 -53 -31 -38 -55 8 -13 26 -19 59 -20 l47 -2 -4 56 c-3 32 -11 59
-19 64 -16 10 -63 12 -72 2z m53 -73 c0 -13 -28 -25 -38 -16 -3 4 0 11 8 16
20 13 30 12 30 0z"/>
<path d="M1610 200 c-24 -24 -26 -57 -4 -88 33 -47 114 -14 114 46 0 57 -69
83 -110 42z m70 -25 c15 -18 7 -43 -16 -52 -24 -9 -46 24 -33 48 12 23 32 24
49 4z"/>
<path d="M1740 215 c0 -4 6 -19 14 -34 13 -25 13 -31 -4 -59 -19 -32 -19 -32
-1 -32 11 0 23 9 26 20 3 11 10 20 15 20 5 0 12 -9 15 -20 4 -11 15 -20 26
-20 19 0 19 1 3 31 -15 30 -15 43 1 82 11 26 -20 22 -32 -5 l-10 -23 -12 23
c-10 19 -41 32 -41 17z"/>
<path d="M38 181 l-32 -29 49 -31 c27 -17 53 -31 58 -31 5 0 22 11 39 25 37
31 39 31 76 0 17 -14 34 -25 39 -25 5 0 31 14 57 31 l48 30 -22 24 c-36 38
-54 39 -109 5 l-51 -32 -50 31 c-28 17 -55 31 -60 31 -5 0 -24 -13 -42 -29z"/>
<path d="M150 101 c-26 -22 -39 -27 -52 -20 -13 7 -18 6 -18 -3 0 -7 25 -27
55 -45 l55 -32 55 32 c30 18 55 38 55 45 0 9 -5 10 -17 3 -13 -7 -26 -2 -54
20 -20 16 -38 29 -40 29 -2 0 -20 -14 -39 -29z"/>
</g>
</svg>
