<?xml version="1.0" standalone="no"?>
<!DOCTYPE svg PUBLIC "-//W3C//DTD SVG 20010904//EN"
 "http://www.w3.org/TR/2001/REC-SVG-20010904/DTD/svg10.dtd">
<svg version="1.0" xmlns="http://www.w3.org/2000/svg"
 width="390.000000pt" height="70.000000pt" viewBox="0 0 390.000000 70.000000"
 preserveAspectRatio="xMidYMid meet">

<g transform="translate(0.000000,70.000000) scale(0.100000,-0.100000)"
fill="#000000" stroke="none">
<path d="M112 620 l-102 -69 70 -57 c38 -31 70 -60 70 -64 0 -4 -32 -33 -70
-64 l-70 -57 105 -70 c58 -38 108 -69 111 -69 3 0 39 28 80 61 l74 62 74 -62
c41 -33 77 -61 80 -61 3 0 53 31 111 69 l105 70 -70 57 c-38 31 -70 60 -70 64
0 4 32 33 70 64 l70 57 -105 70 c-58 38 -108 69 -111 69 -3 0 -39 -28 -80 -61
l-74 -62 -74 62 c-41 33 -78 61 -83 60 -4 0 -54 -31 -111 -69z m375 -120 c54
-33 98 -65 98 -70 0 -10 -189 -130 -205 -130 -16 0 -205 120 -205 130 0 11
184 128 202 129 7 1 56 -26 110 -59z"/>
<path d="M1050 482 c-55 -30 -85 -92 -85 -177 0 -81 21 -126 75 -162 39 -27
103 -30 155 -9 29 13 35 20 35 45 0 35 -4 36 -40 16 -39 -22 -87 -19 -115 9
-47 47 -43 170 7 216 26 24 56 25 103 6 39 -17 50 -8 41 29 -11 44 -113 60
-176 27z"/>
<path d="M2915 478 c-3 -8 -4 -88 -3 -178 l3 -165 70 -3 c125 -6 185 30 185
110 0 31 -7 46 -28 66 -27 26 -27 28 -10 45 25 24 23 71 -6 104 -23 26 -30 28
-115 31 -71 3 -92 1 -96 -10z m149 -64 c9 -8 16 -19 16 -24 0 -20 -34 -40 -66
-40 -33 0 -34 1 -34 40 0 39 1 40 34 40 19 0 42 -7 50 -16z m16 -144 c11 -11
20 -24 20 -30 0 -24 -41 -50 -80 -50 l-40 0 0 50 0 50 40 0 c27 0 47 -7 60
-20z"/>
<path d="M1312 403 c-12 -2 -27 -13 -32 -23 -14 -25 -2 -53 19 -45 35 15 91
17 106 5 29 -24 18 -40 -27 -40 -50 0 -103 -29 -113 -60 -11 -34 4 -88 28
-105 28 -20 77 -19 106 1 18 13 25 14 31 4 4 -6 18 -10 31 -8 24 3 24 4 24
116 0 112 0 114 -28 138 -28 24 -78 30 -145 17z m108 -176 c0 -34 -33 -61 -65
-53 -18 5 -25 13 -25 31 0 28 23 44 63 45 22 0 27 -4 27 -23z"/>
<path d="M1884 401 c-80 -35 -98 -187 -28 -252 22 -21 35 -24 95 -24 50 0 73
4 85 17 21 21 11 53 -14 43 -9 -4 -35 -9 -57 -12 -43 -5 -66 10 -79 55 -7 22
-6 22 79 22 96 0 102 5 91 65 -11 57 -44 87 -102 91 -27 2 -59 0 -70 -5z m90
-57 c31 -31 20 -44 -39 -44 -47 0 -54 2 -48 18 16 44 57 57 87 26z"/>
<path d="M2200 390 c-24 -24 -30 -25 -30 -4 0 11 -8 14 -27 12 l-28 -3 0 -130
0 -130 33 -3 32 -3 0 84 c0 76 2 86 25 107 15 14 31 21 45 17 18 -4 20 -1 20
34 0 35 -3 39 -25 39 -14 0 -34 -9 -45 -20z"/>
<path d="M2407 390 c-21 -17 -26 -18 -31 -5 -3 8 -17 15 -31 15 l-25 0 0 -136
0 -135 33 3 32 3 3 91 c3 103 19 132 65 120 31 -7 37 -29 37 -134 l0 -83 33 3
32 3 3 80 c4 103 -4 142 -33 171 -30 30 -82 32 -118 4z"/>
<path d="M2662 403 c-12 -2 -27 -13 -32 -23 -14 -25 -2 -53 19 -45 35 15 91
17 106 5 29 -24 18 -40 -27 -40 -50 0 -103 -29 -113 -60 -11 -34 4 -88 28
-105 28 -20 77 -19 106 1 18 13 25 14 31 4 4 -6 18 -10 31 -8 24 3 24 4 24
116 0 112 0 114 -28 138 -28 24 -78 30 -145 17z m108 -176 c0 -34 -33 -61 -65
-53 -18 5 -25 13 -25 31 0 28 23 44 63 45 22 0 27 -4 27 -23z"/>
<path d="M3279 395 c-78 -42 -91 -182 -24 -245 36 -33 118 -39 163 -10 85 53
82 220 -4 256 -42 18 -102 17 -135 -1z m104 -58 c24 -17 33 -79 17 -117 -23
-56 -91 -52 -110 6 -27 81 34 154 93 111z"/>
<path d="M1530 388 c0 -7 18 -68 41 -136 l41 -123 46 3 45 3 39 115 c47 143
48 152 7 148 -30 -3 -33 -6 -58 -90 -15 -48 -29 -89 -32 -93 -3 -3 -18 38 -34
90 l-28 95 -33 0 c-21 0 -34 -5 -34 -12z"/>
<path d="M3520 389 c0 -6 14 -36 31 -65 l31 -54 -36 -64 c-20 -35 -36 -67 -36
-70 0 -3 16 -6 35 -6 32 0 37 4 57 45 12 25 25 45 28 45 3 0 16 -20 28 -45 20
-41 25 -45 57 -45 19 0 35 3 35 7 0 4 -15 35 -32 70 l-33 62 30 58 c16 32 31
61 33 66 2 4 -12 7 -30 7 -31 0 -36 -5 -57 -47 l-23 -48 -24 48 c-22 42 -28
47 -59 47 -19 0 -35 -5 -35 -11z"/>
<path d="M300 200 l-72 -60 -34 21 -34 21 0 -24 c0 -19 19 -35 104 -86 57 -34
110 -62 116 -62 6 0 59 28 116 62 85 51 104 67 104 86 l0 24 -33 -21 -33 -20
-73 59 c-40 33 -76 60 -81 60 -4 0 -41 -27 -80 -60z"/>
</g>
</svg>
